<svg version="1.1" id="Layer_1" xmlns="http://www.w3.org/2000/svg" xmlns:xlink="http://www.w3.org/1999/xlink" x="0px" y="0px" viewBox="0 0 500 500" style="width: 166px;" xml:space="preserve" data-imageid="coding-1-47" imageName="Coding 1" class="illustrations_image">
<style type="text/css">
	.st0_coding-1-47{fill:#093F68;}
	.st1_coding-1-47{fill:#FFFFFF;}
	.st2_coding-1-47{fill:#68E1FD;}
	.st3_coding-1-47{fill:#DFEAEF;}
	.st4_coding-1-47{fill:#FFC9B0;}
	.st5_coding-1-47{fill:#725858;}
	.st6_coding-1-47{fill:#F56132;}
	.st7_coding-1-47{fill:#FFBC0E;}
</style>
<g id="device_coding-1-47">
	<rect x="289.7" y="307.2" class="st0_coding-1-47" width="61" height="53.4"/>
	<path class="st0_coding-1-47" d="M350.7,362.4h-61c-1,0-1.8-0.8-1.8-1.8c0,0,0,0,0,0v-53.4c0-1,0.8-1.8,1.8-1.8c0,0,0,0,0,0h61&#xA;&#9;&#9;c1,0,1.8,0.8,1.8,1.8v53.4C352.5,361.6,351.7,362.4,350.7,362.4z M291.5,358.8h57.4V309h-57.4V358.8z"/>
	<rect x="274.2" y="350.6" class="st1_coding-1-47" width="89.6" height="11.1"/>
	<path class="st0_coding-1-47" d="M363.8,363.5h-89.6c-1,0-1.8-0.8-1.8-1.8v-11.1c0-1,0.8-1.8,1.8-1.8h89.6c1,0,1.8,0.8,1.8,1.8v11.1&#xA;&#9;&#9;C365.6,362.7,364.8,363.5,363.8,363.5z M276.1,359.9H362v-7.5h-85.9V359.9z"/>
	<path class="st0_coding-1-47" d="M423.2,310H220.5c-5.5,0.1-10.1-4.3-10.1-9.9c0-0.4,0-0.9,0.1-1.3l13.1-134.4c0.7-6.3,6-11,12.3-11.2h202.7&#xA;&#9;&#9;c5.5-0.1,10.1,4.3,10.1,9.9c0,0.4,0,0.9-0.1,1.3l-13.1,134.4C434.8,305.1,429.5,309.9,423.2,310z"/>
	<path class="st0_coding-1-47" d="M423.2,311.9H220.5c-6.5,0.1-11.9-5.1-12-11.6c0-0.5,0-1.1,0.1-1.6l13.1-134.4c0.8-7.2,6.8-12.7,14.1-12.8&#xA;&#9;&#9;h202.7c6.5-0.1,11.9,5.1,12,11.6c0,0.5,0,1.1-0.1,1.6L437.3,299C436.5,306.2,430.5,311.7,423.2,311.9z M235.9,155.1&#xA;&#9;&#9;c-5.4,0.1-9.9,4.2-10.5,9.5L212.2,299c-0.3,2.4,0.5,4.7,2.1,6.5c1.6,1.7,3.9,2.7,6.2,2.6h202.7c5.4-0.1,9.8-4.2,10.5-9.5&#xA;&#9;&#9;l13.1-134.4c0.6-4.5-2.6-8.5-7-9.1c-0.4-0.1-0.8-0.1-1.3-0.1L235.9,155.1z"/>
	<path class="st2_coding-1-47 targetColor" d="M411.3,310H208.6c-5.5,0.1-10.1-4.3-10.1-9.9c0-0.4,0-0.9,0.1-1.3l13.1-134.4c0.7-6.3,6-11,12.3-11.1h202.7&#xA;&#9;&#9;c5.5-0.1,10.1,4.3,10.1,9.9c0,0.4,0,0.9-0.1,1.3l-13.2,134.4C422.9,305.1,417.6,309.9,411.3,310z" style="fill: rgb(189, 226, 215);"/>
	<path class="st0_coding-1-47" d="M411.3,311.9H208.6c-6.5,0.1-11.9-5.1-12-11.6c0-0.5,0-1.1,0.1-1.6l13.1-134.4c0.8-7.2,6.9-12.7,14.1-12.8&#xA;&#9;&#9;h202.7c3.4-0.1,6.6,1.4,8.9,3.9c2.3,2.5,3.4,5.9,3,9.3L425.4,299C424.6,306.2,418.6,311.7,411.3,311.9z M224,155.1&#xA;&#9;&#9;c-5.4,0.1-9.9,4.2-10.5,9.5L200.4,299c-0.3,2.4,0.5,4.7,2.1,6.5c1.6,1.7,3.9,2.7,6.2,2.6h202.7c5.4-0.1,9.8-4.2,10.5-9.5&#xA;&#9;&#9;l13.1-134.4c0.3-2.4-0.5-4.7-2-6.5c-1.6-1.7-3.9-2.7-6.2-2.7L224,155.1z"/>
	<path class="st1_coding-1-47" d="M408.4,278.9H217.6c-2.8,0-5-2.2-5-5c0-0.2,0-0.4,0-0.6l10-102.6c0.4-3.1,3-5.5,6.1-5.6h190.8c2.8,0,5,2.2,5,5&#xA;&#9;&#9;c0,0.2,0,0.4,0,0.6l-10,102.6C414.2,276.4,411.5,278.8,408.4,278.9z"/>
	<path class="st0_coding-1-47" d="M408.4,280.7H217.6c-3.7,0.1-6.8-2.9-6.9-6.7c0-0.3,0-0.6,0-0.9l10-102.6c0.5-4,3.8-7.1,7.9-7.2h190.8&#xA;&#9;&#9;c3.7-0.1,6.8,2.9,6.9,6.7c0,0.3,0,0.6,0,0.9l-10,102.6C415.9,277.5,412.5,280.6,408.4,280.7z M228.8,167c-2.2,0.1-4,1.7-4.3,3.9&#xA;&#9;&#9;l-10,102.6c-0.2,1.7,1,3.3,2.7,3.5c0.2,0,0.4,0,0.5,0h190.7c2.2-0.1,4-1.7,4.3-3.9l10-102.6c0.2-1.7-1-3.3-2.7-3.5&#xA;&#9;&#9;c-0.2,0-0.4,0-0.5,0H228.8z"/>
	<polygon class="st1_coding-1-47" points="398.2,267.1 300.8,267.1 308,193.2 405.4,193.2 &#9;"/>
	<path class="st0_coding-1-47" d="M398.2,268.9h-97.4c-0.5,0-1-0.2-1.3-0.6c-0.3-0.4-0.5-0.9-0.5-1.4l7.2-73.9c0.1-0.9,0.9-1.6,1.8-1.6h97.4&#xA;&#9;&#9;c1,0,1.8,0.8,1.8,1.8c0,0.1,0,0.1,0,0.2l-7.2,73.8C399.9,268.2,399.1,268.9,398.2,268.9z M302.8,265.3h93.8l6.9-70.2h-93.8&#xA;&#9;&#9;L302.8,265.3z"/>
	<polygon class="st1_coding-1-47" points="404.2,205.8 306.8,205.8 308,193.2 405.4,193.2 &#9;"/>
	<path class="st0_coding-1-47" d="M404.2,207.6h-97.4c-0.5,0-1-0.2-1.4-0.6c-0.3-0.4-0.5-0.9-0.5-1.4l1.2-12.5c0.1-0.9,0.9-1.6,1.8-1.6h97.4&#xA;&#9;&#9;c1,0,1.8,0.8,1.8,1.8c0,0.1,0,0.1,0,0.2l-1.2,12.5C405.9,206.9,405.1,207.6,404.2,207.6z M308.8,204h93.8l0.9-8.9h-93.8L308.8,204z&#xA;&#9;&#9;"/>
	<polygon class="st1_coding-1-47" points="331.8,251 234.4,251 241.6,177.1 339.1,177.1 &#9;"/>
	<path class="st0_coding-1-47" d="M331.8,252.8h-97.4c-1,0-1.8-0.8-1.8-1.8c0-0.1,0-0.1,0-0.2l7.2-73.8c0.1-0.9,0.9-1.6,1.8-1.6h97.4&#xA;&#9;&#9;c1,0,1.8,0.8,1.8,1.8c0,0.1,0,0.1,0,0.2l-7.2,73.8C333.5,252.1,332.8,252.8,331.8,252.8z M236.4,249.2h93.8l6.9-70.2h-93.8&#xA;&#9;&#9;L236.4,249.2z"/>
	<polygon class="st1_coding-1-47" points="337.8,189.7 240.4,189.7 241.6,177.1 339.1,177.1 &#9;"/>
	<path class="st0_coding-1-47" d="M337.8,191.5h-97.4c-1,0-1.8-0.8-1.8-1.8c0-0.1,0-0.1,0-0.2l1.2-12.5c0.1-0.9,0.9-1.6,1.8-1.6h97.4&#xA;&#9;&#9;c1,0,1.8,0.8,1.8,1.8c0,0.1,0,0.1,0,0.2l-1.2,12.5C339.5,190.8,338.7,191.5,337.8,191.5z M242.4,187.9h93.8l0.9-8.9h-93.8&#xA;&#9;&#9;L242.4,187.9z"/>
	<path class="st3_coding-1-47" d="M314.9,241.4h-19.7c-0.5,0-1-0.2-1.4-0.6c-0.3-0.4-0.5-0.9-0.5-1.4l1.1-11.5c0.1-0.9,0.9-1.6,1.8-1.6h19.7&#xA;&#9;&#9;c0.5,0,1,0.2,1.3,0.6c0.3,0.4,0.5,0.9,0.5,1.4l-1.1,11.5C316.7,240.6,315.9,241.4,314.9,241.4z M297.2,237.7h16.1l0.8-7.9H298&#xA;&#9;&#9;L297.2,237.7z"/>
	<polygon class="st1_coding-1-47" points="323,231.3 303.2,231.3 304.4,219.8 324.1,219.8 &#9;"/>
	<path class="st3_coding-1-47" d="M323,233.1h-19.8c-0.5,0-1-0.2-1.3-0.6c-0.3-0.4-0.5-0.9-0.5-1.4l1.1-11.5c0.1-0.9,0.9-1.6,1.8-1.6h19.7&#xA;&#9;&#9;c1,0,1.8,0.8,1.8,1.8c0,0.1,0,0.1,0,0.2l-1.1,11.5C324.7,232.4,323.9,233.1,323,233.1z M305.3,229.5h16.1l0.8-7.9H306L305.3,229.5z&#xA;&#9;&#9;"/>
	<polygon class="st1_coding-1-47" points="276.1,219.8 247.5,219.8 249.7,197 278.3,197 &#9;"/>
	<path class="st3_coding-1-47" d="M276.1,221.6h-28.6c-0.5,0-1-0.2-1.4-0.6c-0.3-0.4-0.5-0.9-0.5-1.4l2.2-22.8c0.1-0.9,0.9-1.6,1.8-1.6h28.6&#xA;&#9;&#9;c1,0,1.8,0.8,1.8,1.8c0,0.1,0,0.1,0,0.2l-2.2,22.8C277.8,220.9,277,221.6,276.1,221.6z M249.5,218h24.9l1.9-19.2h-24.9L249.5,218z"/>
	<polygon class="st1_coding-1-47" points="264.3,240.6 245.5,240.6 246.8,226.8 265.6,226.8 &#9;"/>
	<path class="st3_coding-1-47" d="M264.3,242.4h-18.8c-0.5,0-1-0.2-1.4-0.6c-0.3-0.4-0.5-0.9-0.5-1.4l1.4-13.8c0.1-0.9,0.9-1.6,1.8-1.6h18.9&#xA;&#9;&#9;c1,0,1.8,0.8,1.8,1.8c0,0.1,0,0.1,0,0.2l-1.3,13.8C266,241.7,265.2,242.4,264.3,242.4z M247.5,238.8h15.2l1-10.1h-15.2L247.5,238.8&#xA;&#9;&#9;z"/>
	<path class="st3_coding-1-47" d="M388.1,219.8H348c-1,0-1.8-0.8-1.8-1.8c0-1,0.8-1.8,1.8-1.8h40.1c1,0,1.8,0.8,1.8,1.8&#xA;&#9;&#9;C389.9,219,389.1,219.8,388.1,219.8C388.1,219.8,388.1,219.8,388.1,219.8L388.1,219.8z"/>
	<path class="st3_coding-1-47" d="M373.7,232h-26.9c-1,0-1.8-0.8-1.8-1.8c0-1,0.8-1.8,1.8-1.8c0,0,0,0,0,0h26.9c1,0,1.8,0.8,1.8,1.8&#xA;&#9;&#9;C375.5,231.2,374.7,232,373.7,232C373.7,232,373.7,232,373.7,232z"/>
	<path class="st3_coding-1-47" d="M385.7,244.3h-40.1c-1-0.1-1.8-0.9-1.7-1.9c0.1-0.9,0.8-1.6,1.7-1.7h40.1c1,0.1,1.8,0.9,1.7,1.9&#xA;&#9;&#9;C387.3,243.5,386.6,244.2,385.7,244.3z"/>
	<path class="st3_coding-1-47" d="M384.5,256.5h-18.1c-1-0.1-1.8-0.9-1.7-1.9c0.1-0.9,0.8-1.6,1.7-1.7h18.1c1,0.1,1.8,0.9,1.7,1.9&#xA;&#9;&#9;C386.1,255.7,385.4,256.5,384.5,256.5z"/>
	<path class="st3_coding-1-47" d="M350.7,256.5h-6.3c-1-0.1-1.8-0.9-1.7-1.9c0.1-0.9,0.8-1.6,1.7-1.7h6.3c1,0.1,1.8,0.9,1.7,1.9&#xA;&#9;&#9;C352.3,255.7,351.6,256.5,350.7,256.5z"/>
</g>
<g id="table_coding-1-47">
	<rect x="178.5" y="360.6" class="st2_coding-1-47 targetColor" width="179.6" height="16.5" style="fill: rgb(189, 226, 215);"/>
	<path class="st0_coding-1-47" d="M358.1,379H178.5c-1,0-1.8-0.8-1.8-1.8v-16.6c0-1,0.8-1.8,1.8-1.8h179.6c1,0,1.8,0.8,1.8,1.8v16.5&#xA;&#9;&#9;C359.9,378.1,359.1,379,358.1,379C358.1,379,358.1,379,358.1,379z M180.3,375.4h176v-12.9h-176L180.3,375.4z"/>
	<rect x="358.1" y="360.6" class="st2_coding-1-47 targetColor" width="98.2" height="16.5" style="fill: rgb(189, 226, 215);"/>
	<path class="st0_coding-1-47" d="M456.3,379h-98.2c-1,0-1.8-0.8-1.8-1.8v-16.6c0-1,0.8-1.8,1.8-1.8h98.2c1,0,1.8,0.8,1.8,1.8v16.5&#xA;&#9;&#9;C458.1,378.1,457.3,379,456.3,379C456.3,379,456.3,379,456.3,379z M359.9,375.4h94.6v-12.9h-94.6V375.4z"/>
</g>
<g id="character_coding-1-47">
	<path class="st4_coding-1-47" d="M192.4,206.1c0,0,7.9,12.3,4.2,16.6s-11.3,0-11.3,0"/>
	<path class="st0_coding-1-47" d="M192.1,226.5c-2.7-0.1-5.3-0.9-7.6-2.2c-0.9-0.5-1.2-1.6-0.7-2.5c0.5-0.9,1.6-1.2,2.5-0.7l0,0&#xA;&#9;&#9;c0.1,0,6.4,3.5,9,0.4c1.9-2.2-1.5-10-4.3-14.5c-0.6-0.8-0.5-1.9,0.3-2.5c0.8-0.6,1.9-0.5,2.5,0.3c0.1,0.1,0.1,0.2,0.2,0.3&#xA;&#9;&#9;c1.4,2.2,8.4,13.7,4.1,18.8C196.5,225.6,194.3,226.5,192.1,226.5z"/>
	<ellipse class="st4_coding-1-47" cx="108.5" cy="210.1" rx="14.3" ry="12.3"/>
	<path class="st0_coding-1-47" d="M108.5,224.2c-8.9,0-16.1-6.3-16.1-14.1s7.2-14.1,16.1-14.1s16.1,6.3,16.1,14.1S117.4,224.2,108.5,224.2z&#xA;&#9;&#9; M108.5,199.6c-6.9,0-12.5,4.7-12.5,10.5s5.6,10.5,12.5,10.5s12.5-4.7,12.5-10.5S115.4,199.6,108.5,199.6L108.5,199.6z"/>
	<path class="st4_coding-1-47" d="M169.7,157.3c12.2,21,20.6,9.1,23.1,5v44.8c0,22.3-17.1,41-39.3,42.9v9.2c0.1,4.1-3,7.5-7.1,7.6&#xA;&#9;&#9;s-7.5-3-7.6-7.1c0-0.2,0-0.4,0-0.5v-8.6c-26.1-1-38.9-23.5-38.9-43.5l6.7-39.9C106.7,167.2,123.8,180.6,169.7,157.3z"/>
	<path class="st0_coding-1-47" d="M146.1,268.3c-5.1,0-9.2-4.1-9.2-9.2v-6.9c-11.4-0.6-21.9-6.2-28.8-15.2c-6.5-8.6-10-19.2-10-30&#xA;&#9;&#9;c0-0.1,0-0.2,0-0.3l6.7-39.9c0.2-1,1.1-1.7,2.1-1.5c0.3,0,0.6,0.2,0.8,0.4c0.2,0.1,17.1,12.2,61.1-10.1c0.9-0.4,1.9-0.1,2.4,0.7&#xA;&#9;&#9;c4.2,7.3,8.4,11.1,12.1,11.2c2.7,0,5.4-2.1,7.9-6.2c0.4-0.7,1.2-1,2-0.8c0.8,0.2,1.3,0.9,1.3,1.7v44.8&#xA;&#9;&#9;c-0.1,22.6-16.9,41.6-39.3,44.5v7.6C155.3,264.2,151.2,268.3,146.1,268.3z M101.7,207.2c0.1,20,12.8,40.6,37.1,41.5&#xA;&#9;&#9;c1,0,1.7,0.8,1.8,1.8v8.6c-0.1,3.1,2.2,5.6,5.3,5.8s5.6-2.2,5.8-5.3c0-0.2,0-0.3,0-0.5V250c0-0.9,0.7-1.7,1.7-1.8&#xA;&#9;&#9;c21.3-2,37.6-19.7,37.7-41.1v-39.5c-1.9,2.2-4.7,3.5-7.6,3.6h-0.1c-4.8,0-9.6-3.9-14.3-11.5c-36.3,18-54.7,13.3-60.9,10.4&#xA;&#9;&#9;L101.7,207.2z"/>
	<path class="st5_coding-1-47" d="M170.1,175.2c2.7,0.3,22.6,5.2,24.6,3.2c4.3-4.3,4.3-10.9,3.4-16.4c-1.5-8.5-5.1-16.6-10.4-23.5&#xA;&#9;&#9;c-4.9-6.3-12.8-14.7-21.3-15.3c-0.7-0.1-1.4,0.1-1.9,0.6c-0.3,0.7-0.3,1.4,0.1,2.1l3.6,9.5c-5-6.4-12.8-10.4-20.9-11.8&#xA;&#9;&#9;s-16.4-0.4-24.2,1.8c-0.6,4.3,5.8,6.3,7,10.4c-9.2-0.9-18.5,1.5-26.1,6.8C88.9,153,85.3,170.7,85.7,188c0.3,12.5,2.3,25.4,8.7,36.1&#xA;&#9;&#9;c12.3,20.6,41,25.9,60.4,13.5C173.1,226.1,168.4,184.7,170.1,175.2z"/>
	<path class="st0_coding-1-47" d="M131.5,246.1c-3.8,0-7.5-0.4-11.2-1.3c-11.5-2.6-21.4-9.7-27.5-19.7c-5.7-9.6-8.6-21.4-9-37&#xA;&#9;&#9;c-0.6-22.3,5.7-37.8,19.1-47.1c7-4.8,15.2-7.3,23.7-7.3c-0.4-0.4-0.9-0.8-1.3-1.3c-2.1-1.9-4.5-4-4-7.4c0.1-0.7,0.6-1.3,1.3-1.5&#xA;&#9;&#9;c9.1-2.5,17.5-3.1,25-1.8c5.8,0.9,11.3,3.2,16,6.6l-0.7-1.9c-0.6-1.2-0.5-2.6,0.1-3.8c0.8-1,2.2-1.5,3.5-1.3&#xA;&#9;&#9;c7.1,0.5,14.7,5.9,22.6,16c5.5,7.1,9.2,15.4,10.8,24.3c1.4,8,0.1,14.1-3.9,18c-1.7,1.7-6.6,1.3-21.6-1.8l-2.7-0.6&#xA;&#9;&#9;c-0.2,2.2-0.2,5.2-0.3,8.7c-0.2,16.4-0.6,43.7-15.6,53.2C148.5,243.8,140.1,246.2,131.5,246.1z M126.5,137.3&#xA;&#9;&#9;c-7.6,0-15.1,2.4-21.4,6.7c-12.4,8.6-18.1,23-17.6,44c0.4,15,3.1,26.2,8.5,35.3c5.6,9.2,14.7,15.7,25.2,18&#xA;&#9;&#9;c11.1,2.7,22.9,0.9,32.6-5.1c13.3-8.4,13.7-34.6,13.9-50.2c-0.1-3.7,0.1-7.4,0.6-11.1c0.2-0.9,1.1-1.6,2-1.5&#xA;&#9;&#9;c0.7,0.1,2.1,0.4,4.8,0.9c4.5,0.9,16.2,3.4,18.5,2.6c3-3.1,3.9-8,2.7-14.7c-1.5-8.3-4.9-16-10.1-22.7c-4.9-6.4-12.4-14.1-20-14.6&#xA;&#9;&#9;l0,0c0,0.1,0,0.1,0.1,0.2l3.6,9.4c0.3,0.9-0.2,2-1.1,2.3c-0.7,0.3-1.5,0-2-0.6c-4.4-5.6-11.6-9.7-19.7-11.1c-6.6-1.1-14-0.7-22,1.3&#xA;&#9;&#9;c0.7,1.2,1.6,2.3,2.7,3.1c1.6,1.5,3.4,3.1,4.1,5.4c0.2,0.6,0.1,1.2-0.3,1.7c-0.4,0.5-1,0.7-1.6,0.7&#xA;&#9;&#9;C128.8,137.3,127.6,137.3,126.5,137.3z"/>
	<path class="st4_coding-1-47" d="M173.9,195.3c-5.9-2.1-15.4-1.1-15.4,11.5c0,6.8,4.1,12.6,10.4,13.1"/>
	<path class="st0_coding-1-47" d="M168.9,221.7h-0.1c-6.9-0.5-12-6.8-12-14.9c0-7,2.8-10.4,5.1-12.1c4-2.8,9.1-2.4,12.7-1.1&#xA;&#9;&#9;c0.9,0.3,1.4,1.4,1.1,2.3c-0.3,0.9-1.4,1.4-2.3,1.1c-2.7-1-6.6-1.3-9.4,0.7c-2.4,1.7-3.6,4.7-3.6,9.1c0,6.2,3.7,10.9,8.7,11.3&#xA;&#9;&#9;c1,0,1.8,0.9,1.7,1.9S169.9,221.7,168.9,221.7L168.9,221.7L168.9,221.7z"/>
	<circle class="st0_coding-1-47" cx="185" cy="197.1" r="3.7"/>
	<path class="st4_coding-1-47" d="M191.4,190c0,0-5.6-4-10.5-1.1"/>
	<path class="st0_coding-1-47" d="M191.4,191.8c-0.4,0-0.7-0.1-1.1-0.3c-0.1-0.1-4.7-3.2-8.6-1c-0.9,0.5-2,0.2-2.5-0.7c-0.5-0.9-0.2-2,0.7-2.5&#xA;&#9;&#9;c5.9-3.4,12.2,1,12.5,1.2c0.8,0.6,1,1.7,0.4,2.5c0,0,0,0,0,0C192.6,191.5,192,191.8,191.4,191.8z"/>
	<path class="st4_coding-1-47" d="M195.5,332.3c0,0,1,23.6,21,27.9s78.6-1.9,78.6-1.9s15.7,0,17.7-5.1s-7.1-16.5-16.5-15.7&#xA;&#9;&#9;c-5.8,0.5-11.6,1.6-17.2,3.1l-47.1-5.5l-9.9-25.5L195.5,332.3z"/>
	<path class="st0_coding-1-47" d="M238.1,363.5c-8.8,0-16.6-0.4-22-1.6c-21.2-4.6-22.4-29.3-22.5-29.6c0-0.6,0.2-1.1,0.6-1.5l26.5-22.7&#xA;&#9;&#9;c0.7-0.7,1.9-0.6,2.5,0.2c0.1,0.2,0.3,0.3,0.3,0.6l9.4,24.5l45.7,5.3c5.7-1.6,11.4-2.6,17.3-3.1c6.6-0.6,12.5,4,15.6,8.1&#xA;&#9;&#9;c2.7,3.6,3.8,7.4,2.7,10c-2.3,5.9-16.2,6.3-19.3,6.3C292.6,360.4,262.1,363.5,238.1,363.5z M197.3,333.1c0.4,4.2,3,21.8,19.5,25.3&#xA;&#9;&#9;c19.5,4.2,77.4-1.9,78-2h0.2c5.8,0,15-1.3,16-4c0.5-1.2-0.1-3.7-2.2-6.6c-2.5-3.4-7.3-7.1-12.4-6.7c-5.7,0.5-11.4,1.5-16.9,3.1&#xA;&#9;&#9;c-0.2,0.1-0.5,0.1-0.7,0.1l-47.1-5.5c-0.7-0.1-1.2-0.5-1.5-1.1l-8.9-23.1L197.3,333.1z"/>
	<path class="st6_coding-1-47" d="M229,318.8c0,0-25.7-72.5-53.2-72.5h-61.9c-13,0-23.8,9.9-25,22.8l-9.7,108h112.2l-1.1-42.2L229,318.8z"/>
	<path class="st0_coding-1-47" d="M191.4,379H79.2c-0.5,0-1-0.2-1.3-0.6c-0.3-0.4-0.5-0.9-0.5-1.4l9.7-108c1.2-13.9,12.8-24.5,26.8-24.5h61.8&#xA;&#9;&#9;c28.4,0,53.8,70.7,54.9,73.7c0.3,0.9-0.1,1.9-1,2.3l-37.5,15.6l1.1,41c0,1-0.7,1.8-1.7,1.9C191.5,379,191.5,379,191.4,379&#xA;&#9;&#9;L191.4,379z M81.2,375.3h108.4l-1.1-40.4c0-0.8,0.4-1.4,1.1-1.7l37.1-15.4c-4.4-11.8-9.7-23.3-15.6-34.4&#xA;&#9;&#9;c-12.6-23.1-24.8-35.3-35.3-35.3h-61.8c-12.1-0.1-22.2,9.2-23.2,21.2L81.2,375.3z"/>
	<path class="st2_coding-1-47 targetColor" d="M62.8,263.4h73.6c9.7,0,17.8,7.3,18.9,16.9l10.9,96.8H54.3l-10.5-92.5c-1.2-10.4,6.3-19.9,16.7-21.1&#xA;&#9;&#9;C61.3,263.5,62,263.4,62.8,263.4z" style="fill: rgb(189, 226, 215);"/>
	<path class="st0_coding-1-47" d="M166.2,379H54.3c-0.9,0-1.7-0.7-1.8-1.6L42,284.8c-1.3-11.4,6.9-21.8,18.4-23.1c0.8-0.1,1.6-0.1,2.4-0.1h73.6&#xA;&#9;&#9;c10.6,0,19.5,8,20.7,18.5l10.9,96.8c0.1,1-0.6,1.9-1.6,2C166.3,378.9,166.3,378.9,166.2,379L166.2,379z M55.9,375.3h108.3&#xA;&#9;&#9;l-10.7-94.8c-1-8.7-8.4-15.3-17.1-15.3H62.8c-9.5,0-17.2,7.7-17.2,17.2c0,0.6,0,1.3,0.1,1.9L55.9,375.3z"/>
	<path class="st0_coding-1-47" d="M190.3,336.7c-0.8,0-1.4-0.5-1.7-1.2l-18.3-47.6c-0.4-0.9,0.1-2,1-2.3s2,0.1,2.3,1l18.3,47.6&#xA;&#9;&#9;c0.4,0.9-0.1,2-1,2.3C190.8,336.7,190.5,336.7,190.3,336.7z"/>
</g>
<g id="glass_coding-1-47">
	<path class="st7_coding-1-47" d="M394,319.8h41.8l0,0v34.7c0,3.4-2.7,6.1-6.1,6.1l0,0h-29.6c-3.4,0-6.1-2.7-6.1-6.1l0,0L394,319.8L394,319.8z"/>
	<path class="st0_coding-1-47" d="M424.8,362.4h-19.6c-7.1,0-12.9-5.8-12.9-12.9v-29.8c0-1,0.8-1.8,1.8-1.8c0,0,0,0,0,0h41.7&#xA;&#9;&#9;c1,0,1.8,0.8,1.8,1.8v29.8C437.6,356.7,431.8,362.4,424.8,362.4z M395.9,321.6v28c0,5.1,4.1,9.2,9.2,9.2h19.6&#xA;&#9;&#9;c5.1,0,9.2-4.1,9.2-9.2v-28H395.9z"/>
	<path class="st0_coding-1-47" d="M441.6,350.3h-5.8c-1,0-1.8-0.8-1.8-1.8V328c0-1,0.8-1.8,1.8-1.8h5.8c6.6,0,12,5.4,12,12&#xA;&#9;&#9;S448.2,350.2,441.6,350.3L441.6,350.3z M437.6,346.7h4c4.6,0,8.4-3.8,8.4-8.4s-3.8-8.4-8.4-8.4c0,0,0,0,0,0h-4V346.7z"/>
</g>
</svg>